<svg version="1.1" xml:space="preserve" style="clip-rule:evenodd;fill-rule:evenodd;stroke-linejoin:round;stroke-miterlimit:1.41421" id="svg22" sodipodi:docname="mindshub_original.svg" inkscape:version="1.2.2 (b0a8486541, 2022-12-01)" xmlns:inkscape="http://www.inkscape.org/namespaces/inkscape" xmlns:sodipodi="http://sodipodi.sourceforge.net/DTD/sodipodi-0.dtd" xmlns="http://www.w3.org/2000/svg" xmlns:svg="http://www.w3.org/2000/svg" viewBox="35.63 -0.03 199.83 181.83"><defs id="defs26"></defs><sodipodi:namedview id="namedview24" pagecolor="#ffffff" bordercolor="#000000" borderopacity="0.25" inkscape:showpageshadow="2" inkscape:pageopacity="0.0" inkscape:pagecheckerboard="0" inkscape:deskcolor="#d1d1d1" showgrid="false" inkscape:zoom="3.5428649" inkscape:cx="272.37844" inkscape:cy="131.95536" inkscape:window-width="2560" inkscape:window-height="1517" inkscape:window-x="0" inkscape:window-y="0" inkscape:window-maximized="1" inkscape:current-layer="svg22"></sodipodi:namedview>     <path d="m 106.42018,40.328853 v 23.797 c -2.066,0.8 -3.696,2.432 -4.499,4.496 h -13.181 v -7.161 c 8.13,-3.152 5.83,-15.212 -2.837,-15.212 -8.682,0 -10.947,12.069 -2.836,15.212 v 7.161 h -38.287 c -0.434,-20.176 18.42,-33.555 34.906,-26.011 -2.579,-20.115 11.258,-37.744 26.733,-32.634 0.001,10.13 0.001,20.189 0.001,30.352 m 16.483,-2.545 c 0,7.62 0,44.554 0,50.276 h -36.747 c -3.144,-8.112 -15.213,-5.845 -15.213,2.837 0,8.694 12.076,10.929997 15.213,2.836 h 36.747 v 42.004997 h -13.38 c -1.139,-2.946 -3.982,-5.042 -7.331,-5.042 -4.352,0 -7.88,3.527 -7.88,7.879 0,8.695 12.08,10.932 15.21,2.836 h 13.38 v 2.597 c 0,15.825 -9.769,28.7 -21.775,28.7 -9.847,0 -18.15,-8.682 -20.828,-20.527 v -36.054 h 16.189 c 1.142,2.945 3.984,5.043 7.333,5.043 4.352,0 7.879,-3.528 7.879,-7.88 0,-4.352 -3.527,-7.879 -7.879,-7.879 -3.349,0 -6.191,2.097 -7.333,5.043 -5.088,0 -17.406,0 -21.863,0 0,10.163 0,20.22 0,30.349 -15.984,3.235 -29.87,-10.257 -29.87,-27.02 0,-9.546 4.594,-18.037997 11.235,-22.885997 -4.982,-3.638 -9.002,-9.493 -10.552,-16.602 h 11.51 v 39.543997 c -8.115,3.141 -5.845,15.212 2.836,15.212 8.693,0 10.932,-12.077 2.837,-15.212 V 74.293853 c 7.258,0 31.436,0 39.3,0 3.148,8.112 15.216,5.845 15.216,-2.836 0,-3.35 -2.099,-6.191 -5.044,-7.332 0,-5.165 0,-45.847 0,-51.097 6.453,4.985 10.81,14.204 10.81,24.755 z m -52.155,-6.332 c -28.548,-0.982 -45.935,34.976 -27.495,59.445 -18.301,24.290997 -1.274,60.433997 27.495,59.443997 2.451,17.615 15.08,31.443 30.379,31.443 17.012,0 30.85,-16.946 30.85,-37.776 0,-4.004 0,-2.024 0,-8.271 0,-13.866 0,-94.879997 0,-97.952997 0,-16.096 -8.279,-29.836 -19.885,-35.268 -18.59,-8.662 -38.166,6.032 -41.344,28.936 z" style="fill:#ffffff;fill-rule:nonzero" id="path2"></path>     <path d="m 164.72218,117.66585 c 2.065,-0.8 3.695,-2.432 4.496,-4.496 h 13.182 v 7.161 c -8.131,3.152 -5.829,15.211 2.836,15.211 8.682,0 10.948,-12.069 2.835,-15.211 v -7.161 h 38.287 c 0.436,20.188 -18.413,33.542 -34.906,26.011 2.611,20.342 -11.446,37.703 -26.73,32.632 0,-12.479 0,-43.541 0,-54.147 m -16.486,26.34 c 0,-7.617 0,-44.554997 0,-50.273997 h 36.747 c 3.15,8.109997 15.215,5.846 15.215,-2.837 0,-8.669 -12.06,-10.961 -15.215,-2.836 h -36.747 c 0,-7.597 0,-33.134 0,-42.006 h 13.38 c 3.143,8.113 15.212,5.845 15.212,-2.836 0,-8.694 -12.077,-10.931 -15.212,-2.837 h -13.38 v -2.596 c 0,-15.826 9.769,-28.7 21.774,-28.7 9.849,0 18.15,8.68 20.829,20.527 v 36.053 h -16.186 c -3.149,-8.114 -15.214,-5.842 -15.214,2.836 0,8.669 12.06,10.964 15.214,2.836 5.086,0 17.4,0 21.86,0 v -5.673 -24.676 c 16.044,-3.247 29.871,10.322 29.871,27.021 0,9.581 -4.612,18.047 -11.233,22.885 4.994,3.65 9.008,9.506997 10.55,16.601997 h -11.507 V 67.953853 c 2.944,-1.141 5.043,-3.983 5.043,-7.332 0,-4.352 -3.528,-7.88 -7.88,-7.88 -4.353,0 -7.881,3.527 -7.881,7.88 0,3.349 2.097,6.191 5.043,7.332 v 39.542997 c -7.231,0 -31.46,0 -39.302,0 -3.145,-8.116997 -15.212,-5.841 -15.212,2.837 0,3.349 2.096,6.191 5.042,7.333 0,17.043 0,34.017 0,51.095 -6.455,-4.986 -10.811,-14.202 -10.811,-24.756 z m 52.155,6.335 c 29.782,0.678 45.302,-35.816 27.494,-59.445997 4.726,-6.273 7.573,-14.227 7.573,-22.885 0,-20.267 -15.617,-37.058 -35.067,-36.56 -0.646,-4.636 -1.988,-8.976 -3.878,-12.878 -16.042,-33.143 -57.353,-18.81799998 -57.353,19.212 0,4.003 0,2.023 0,8.269 0,13.868 0,94.879997 0,97.952997 0,21.888 14.814,37.776 30.85,37.776 15.244,0 27.907,-13.624 30.381,-31.441 z" style="fill:#ffffff;fill-rule:nonzero" id="path4"></path> </svg>