<svg width="25" height="38" viewBox="0 0 25 38" fill="none" xmlns="http://www.w3.org/2000/svg">
<g clip-path="url(#clip0_4871_13122)">
<g clip-path="url(#clip1_4871_13122)">
<path fill-rule="evenodd" clip-rule="evenodd" d="M25 19C25 25.9036 19.4036 31.5 12.5 31.5C5.59644 31.5 0 25.9036 0 19C0 12.0964 5.59644 6.5 12.5 6.5C19.4036 6.5 25 12.0964 25 19ZM22.1605 18.4034C22.1605 22.3234 18.9827 25.5012 15.0627 25.5012C11.1427 25.5012 7.96489 22.3234 7.96489 18.4034C7.96489 14.4834 11.1427 11.3056 15.0627 11.3056C18.9827 11.3056 22.1605 14.4834 22.1605 18.4034Z" fill="url(#paint0_linear_4871_13122)"/>
<path fill-rule="evenodd" clip-rule="evenodd" d="M16.6786 16.8528C19.2528 14.28 21.4575 12.7499 22.835 13.0513C24.1148 13.3302 24.5235 15.3779 24.7853 16.6901L24.7909 16.7182C25.3399 19.4744 24.9988 24.9292 20.6688 28.4525C18.1344 30.5148 15.5923 31.4999 12.4987 31.4999C4.6173 31.4999 0 25.1832 0 19.2051C0 14.8405 1.7341 12.2586 3.32449 10.4977C4.93285 8.71744 7.30048 7.37585 9.73738 6.78587C11.7138 6.30875 13.8518 6.57297 13.8518 6.57297C8.5484 6.05096 2.64854 10.1552 3.32449 15.8627C3.7995 19.8735 7.9161 21.084 9.90666 20.8006C12.1999 20.4748 14.0353 19.4975 16.6786 16.8528ZM21.1708 20.1893C21.1708 20.5739 20.859 20.8857 20.4744 20.8857C20.0897 20.8857 19.7779 20.5739 19.7779 20.1893C19.7779 19.8047 20.0897 19.4929 20.4744 19.4929C20.859 19.4929 21.1708 19.8047 21.1708 20.1893Z" fill="url(#paint1_radial_4871_13122)"/>
<path d="M20.6289 13.6099C20.6289 13.6099 21.7616 12.9771 22.467 13.426C23.2792 13.9428 23.9285 15.5794 23.2241 18.6319C22.6338 21.1898 21.5022 22.6235 21.5022 22.6235C21.5022 22.6235 24.3981 21.4495 24.8568 17.0766C24.5546 15.1881 24.1781 14.2482 23.3827 12.845C22.0822 12.5282 20.6289 13.6099 20.6289 13.6099Z" fill="url(#paint2_linear_4871_13122)"/>
</g>
</g>
<defs>
<linearGradient id="paint0_linear_4871_13122" x1="10.0169" y1="21.4844" x2="21.6358" y2="9.8642" gradientUnits="userSpaceOnUse">
<stop stop-color="#E95C3F"/>
<stop offset="1" stop-color="#FF5D69"/>
</linearGradient>
<radialGradient id="paint1_radial_4871_13122" cx="0" cy="0" r="1" gradientUnits="userSpaceOnUse" gradientTransform="translate(13.6146 10.9889) rotate(89.2838) scale(20.5228 20.5228)">
<stop stop-color="#FFDA00"/>
<stop offset="0.83" stop-color="#FF9B00"/>
<stop offset="1" stop-color="#FF5D69"/>
</radialGradient>
<linearGradient id="paint2_linear_4871_13122" x1="14.4432" y1="25.908" x2="26.0621" y2="14.2892" gradientUnits="userSpaceOnUse">
<stop stop-color="#E95C3F"/>
<stop offset="1" stop-color="#FF5D69"/>
</linearGradient>
<clipPath id="clip0_4871_13122">
<rect width="25" height="38" fill="white"/>
</clipPath>
<clipPath id="clip1_4871_13122">
<rect width="25" height="25" fill="white" transform="translate(0 6.5)"/>
</clipPath>
</defs>
</svg>
